<svg width="200" height="39" viewBox="0 0 200 39" fill="none" xmlns="http://www.w3.org/2000/svg">
<path d="M34.649 29.4568V25.5293L44.5573 14.1036L47.1013 11.5596L43.3968 11.6488H34.7383V7.14105H53.8853V11.0686L44.0217 22.4497L41.4777 25.0383L45.5392 24.9491H54.2423V29.4568H34.649Z" fill="#212A3B"/>
<path d="M72.0252 15.2194C72.0252 13.9399 71.6533 12.9432 70.9094 12.2291C70.1953 11.5149 69.2432 11.1579 68.053 11.1579C66.9521 11.1579 65.9851 11.4406 65.1519 12.0059C64.3188 12.5712 63.7089 13.5085 63.322 14.8177L58.1002 13.2109C58.606 11.2472 59.7069 9.67018 61.4029 8.48C63.1286 7.28982 65.4346 6.69474 68.3208 6.69474C70.2846 6.69474 71.9954 7.00716 73.4534 7.632C74.9114 8.22709 76.042 9.1346 76.8454 10.3545C77.6785 11.5745 78.0951 13.1068 78.0951 14.9516V24.0118C78.0951 25.1425 78.6307 25.7078 79.7018 25.7078C80.2077 25.7078 80.6837 25.6334 81.13 25.4846L80.773 29.2783C79.9994 29.6651 79.0324 29.8585 77.8719 29.8585C76.8305 29.8585 75.8933 29.68 75.0602 29.3229C74.227 28.9659 73.5724 28.4303 73.0964 27.7162C72.6203 26.9724 72.3823 26.05 72.3823 24.9491V24.7705L73.4534 24.592C73.2749 25.7227 72.7839 26.6897 71.9806 27.4931C71.1772 28.2667 70.1953 28.8618 69.0349 29.2783C67.9042 29.6949 66.7289 29.9032 65.509 29.9032C63.9915 29.9032 62.6823 29.68 61.5814 29.2337C60.4805 28.7576 59.6325 28.0733 59.0374 27.1806C58.4423 26.288 58.1448 25.1871 58.1448 23.8779C58.1448 22.2117 58.6804 20.8578 59.7515 19.8164C60.8227 18.7453 62.355 18.0163 64.3486 17.6295L72.7393 15.9335L72.6947 19.7272L67.3389 20.7983C66.3272 21.0066 65.5536 21.2893 65.018 21.6463C64.5122 21.9736 64.2593 22.5241 64.2593 23.2977C64.2593 24.0415 64.5271 24.6069 65.0627 24.9937C65.628 25.3805 66.2975 25.5739 67.0711 25.5739C67.6959 25.5739 68.3059 25.4995 68.901 25.3507C69.4961 25.202 70.0317 24.9639 70.5077 24.6366C70.9838 24.3093 71.3557 23.863 71.6235 23.2977C71.8913 22.7324 72.0252 22.048 72.0252 21.2446V15.2194Z" fill="#212A3B"/>
<path d="M84.9335 38.8295V7.14105H90.4232L90.8249 14.2375L90.0661 13.4341C90.3339 12.1249 90.8249 10.9645 91.539 9.95284C92.2828 8.94119 93.2201 8.1527 94.3508 7.58737C95.4814 6.99228 96.746 6.69474 98.1444 6.69474C99.9595 6.69474 101.581 7.15593 103.009 8.07832C104.437 9.0007 105.553 10.3248 106.357 12.0505C107.19 13.7465 107.606 15.8145 107.606 18.2543C107.606 20.6942 107.19 22.7919 106.357 24.5474C105.524 26.2731 104.378 27.5972 102.92 28.5196C101.492 29.442 99.8553 29.9032 98.0106 29.9032C96.0468 29.9032 94.4103 29.3527 93.1011 28.2518C91.8216 27.1509 90.9439 25.7673 90.4678 24.1011L91.048 23.1638V38.8295H84.9335ZM96.2253 25.2168C97.8618 25.2168 99.1412 24.6366 100.064 23.4762C101.016 22.286 101.492 20.5603 101.492 18.2989C101.492 16.0376 101.031 14.3267 100.108 13.1663C99.2156 11.9761 97.951 11.3811 96.3146 11.3811C95.2731 11.3811 94.3508 11.6637 93.5474 12.2291C92.7738 12.7646 92.1638 13.5531 91.7175 14.5945C91.2712 15.6062 91.048 16.841 91.048 18.2989C91.048 19.7272 91.2563 20.962 91.6729 22.0034C92.0894 23.0448 92.6845 23.8481 93.4581 24.4135C94.2615 24.9491 95.1839 25.2168 96.2253 25.2168Z" fill="#212A3B"/>
<path d="M113.322 29.4568V0H135.415V4.95411H119.481V12.2737H132.023V17.0046H119.481V24.5027H136.04V29.4568H113.322Z" fill="#212A3B"/>
<path d="M166.872 0V29.4568H160.713V0H166.872ZM147.725 0V29.4568H141.566V0H147.725ZM163.926 12.0952V17.0493H144.645V12.0952H163.926Z" fill="#212A3B"/>
<path d="M187.548 0C190.88 0 193.499 0.803369 195.403 2.41011C197.307 4.01684 198.259 6.17404 198.259 8.88168C198.259 11.7679 197.307 13.9846 195.403 15.5318C193.499 17.0493 190.895 17.808 187.592 17.808L186.968 18.1651H180.63V29.4568H174.56V0H187.548ZM186.834 13.4787C188.559 13.4787 189.839 13.1366 190.672 12.4522C191.535 11.7381 191.966 10.6521 191.966 9.19411C191.966 7.73614 191.535 6.66498 190.672 5.98063C189.839 5.26653 188.559 4.90948 186.834 4.90948H180.63V13.4787H186.834ZM190.449 14.7731L200 29.4568H193.082L185.182 16.5583L190.449 14.7731Z" fill="#212A3B"/>
<path d="M24.0564 29.9182V34.9616H0V29.9182H24.0564Z" fill="#1BCDFF"/>
</svg>
